<?xml version="1.0" encoding="UTF-8"?>
<svg width="13px" height="14px" viewBox="0 0 13 14" version="1.1" xmlns="http://www.w3.org/2000/svg" xmlns:xlink="http://www.w3.org/1999/xlink">
    <!-- Generator: Sketch 41.2 (35397) - http://www.bohemiancoding.com/sketch -->
    <title></title>
    <desc>Created with Sketch.</desc>
    <defs></defs>
    <g id="Aanpassingen" stroke="none" stroke-width="1" fill="none" fill-rule="evenodd">
        <g id="Plekje-detail-(meer-vierkant-en-hogere-fotografie-header)" transform="translate(-559.000000, -1150.000000)" fill="#000000">
            <g id="Group-7" transform="translate(474.000000, 1150.000000)">
                <g id="Group-14">
                    <g id="Page-1-Copy-5">
                        <g id="Group-2">
                            <path d="M86,13 L97,13 L97,5 L86,5 L86,13 Z M89,3.5 L89,1.25 C89,1.17708297 88.9765627,1.11718773 88.9296875,1.0703125 C88.8828123,1.02343727 88.822917,1 88.75,1 L88.25,1 C88.177083,1 88.1171877,1.02343727 88.0703125,1.0703125 C88.0234373,1.11718773 88,1.17708297 88,1.25 L88,3.5 C88,3.57291703 88.0234373,3.63281227 88.0703125,3.6796875 C88.1171877,3.72656273 88.177083,3.75 88.25,3.75 L88.75,3.75 C88.822917,3.75 88.8828123,3.72656273 88.9296875,3.6796875 C88.9765627,3.63281227 89,3.57291703 89,3.5 Z M95,3.5 L95,1.25 C95,1.17708297 94.9765627,1.11718773 94.9296875,1.0703125 C94.8828123,1.02343727 94.822917,1 94.75,1 L94.25,1 C94.177083,1 94.1171877,1.02343727 94.0703125,1.0703125 C94.0234373,1.11718773 94,1.17708297 94,1.25 L94,3.5 C94,3.57291703 94.0234373,3.63281227 94.0703125,3.6796875 C94.1171877,3.72656273 94.177083,3.75 94.25,3.75 L94.75,3.75 C94.822917,3.75 94.8828123,3.72656273 94.9296875,3.6796875 C94.9765627,3.63281227 95,3.57291703 95,3.5 Z M98,3 L98,13 C98,13.2708347 97.9010427,13.5052073 97.703125,13.703125 C97.5052073,13.9010427 97.2708347,14 97,14 L86,14 C85.7291653,14 85.4947927,13.9010427 85.296875,13.703125 C85.0989573,13.5052073 85,13.2708347 85,13 L85,3 C85,2.72916531 85.0989573,2.49479266 85.296875,2.296875 C85.4947927,2.09895734 85.7291653,2 86,2 L87,2 L87,1.25 C87,0.906248281 87.1223946,0.611980391 87.3671875,0.3671875 C87.6119804,0.122394609 87.9062483,0 88.25,0 L88.75,0 C89.0937517,0 89.3880196,0.122394609 89.6328125,0.3671875 C89.8776054,0.611980391 90,0.906248281 90,1.25 L90,2 L93,2 L93,1.25 C93,0.906248281 93.1223946,0.611980391 93.3671875,0.3671875 C93.6119804,0.122394609 93.9062483,0 94.25,0 L94.75,0 C95.0937517,0 95.3880196,0.122394609 95.6328125,0.3671875 C95.8776054,0.611980391 96,0.906248281 96,1.25 L96,2 L97,2 C97.2708347,2 97.5052073,2.09895734 97.703125,2.296875 C97.9010427,2.49479266 98,2.72916531 98,3 Z" id=""></path>
                        </g>
                    </g>
                </g>
            </g>
        </g>
    </g>
</svg>