<svg width="14" height="9" xmlns="http://www.w3.org/2000/svg">

 <g>
  <title>background</title>
  <rect fill="none" id="canvas_background" height="402" width="582" y="-1" x="-1"/>
 </g>
 <g>
  <title>Layer 1</title>
  <g fill-rule="evenodd" fill="none" id="Aanpassingen">
   <g fill="#F55B96" id="Filter-tablet-uitgeklapt">
    <g id="Group-12">
     <g id="Page-1-Copy-5">
      <path fill="#71d60c" id="ï¸" d="m13.44531,2.625l-5.79688,5.78906c-0.09896,0.09896 -0.21614,0.14844 -0.35156,0.14844c-0.13542,0 -0.2526,-0.04948 -0.35156,-0.14844l-5.79688,-5.78906c-0.09896,-0.09896 -0.14843,-0.21745 -0.14843,-0.35547c0,-0.13802 0.04947,-0.25651 0.14843,-0.35547l1.29688,-1.28906c0.09896,-0.09896 0.21614,-0.14844 0.35156,-0.14844c0.13542,0 0.2526,0.04948 0.35156,0.14844l4.14844,4.14844l4.14844,-4.14844c0.09896,-0.09896 0.21614,-0.14844 0.35156,-0.14844c0.13542,0 0.2526,0.04948 0.35156,0.14844l1.29688,1.28906c0.09896,0.09896 0.14844,0.21745 0.14844,0.35547c0,0.13802 -0.04948,0.25651 -0.14844,0.35547z"/>
     </g>
    </g>
   </g>
  </g>
 </g>
</svg>