<?xml version="1.0" encoding="UTF-8"?>
<svg width="14px" height="9px" viewBox="0 0 14 9" version="1.1" xmlns="http://www.w3.org/2000/svg" xmlns:xlink="http://www.w3.org/1999/xlink">
    <g id="Aanpassingen" stroke="none" stroke-width="1" fill="none" fill-rule="evenodd">
        <g id="Filter-tablet-uitgeklapt" transform="translate(-343.000000, -357.000000)" fill="#F55B96">
            <g id="Group-12" transform="translate(235.000000, 351.000000)">
                <g id="Page-1-Copy-5">
                    <path d="M121.148438,8.3125 L115.351562,14.1015625 C115.252604,14.2005213 115.135417,14.25 115,14.25 C114.864583,14.25 114.747396,14.2005213 114.648438,14.1015625 L108.851562,8.3125 C108.752604,8.21354117 108.703125,8.09505277 108.703125,7.95703125 C108.703125,7.81900973 108.752604,7.70052133 108.851562,7.6015625 L110.148438,6.3125 C110.247396,6.21354117 110.364583,6.1640625 110.5,6.1640625 C110.635417,6.1640625 110.752604,6.21354117 110.851562,6.3125 L115,10.4609375 L119.148438,6.3125 C119.247396,6.21354117 119.364583,6.1640625 119.5,6.1640625 C119.635417,6.1640625 119.752604,6.21354117 119.851562,6.3125 L121.148438,7.6015625 C121.247396,7.70052133 121.296875,7.81900973 121.296875,7.95703125 C121.296875,8.09505277 121.247396,8.21354117 121.148438,8.3125 Z" id="ï¸"></path>
                </g>
            </g>
        </g>
    </g>
</svg>